<?xml version="1.0" encoding="utf-8"?>
<svg version="1.1" id="Layer_1" xmlns="http://www.w3.org/2000/svg"
     xmlns:xlink="http://www.w3.org/1999/xlink" x="0px" y="0px"
     viewBox="0 0 256 256" style="enable-background:new 0 0 256 256;" xml:space="preserve">
  <style type="text/css">
    .st0{fill:#001529;}
    .st1{fill:#FFFFFF;}
  </style>

  <path class="st0" d="M256,128c0,70.7-57.3,128-128,128C57.3,256,0,198.7,0,128C0,57.3,57.3,0,128,0C198.7,0,256,57.3,256,128z"/>
  <g transform="translate(64 42) scale(1.4)">
    <circle cx="8.45" cy="30.54" r="8.45" style="fill: rgb(0, 229, 255);"/>
    <polygon points="16.37 45.97 1.08 45.97 1.08 96.82 16.37 96.82 16.37 45.99 16.41 46.04 16.41 46.02 16.37 45.97" style="fill: rgb(255, 255, 255);"/>
    <path d="M44.62,24.38,75,73.14h.2V24.38h15V97.06h-16L43.91,48.4H43.7V97.06h-15V24.38Z" style="fill: rgb(255, 255, 255);"/>
  </g>

</svg>
